<svg version="1.1" id="Layer_1" xmlns="http://www.w3.org/2000/svg" xmlns:xlink="http://www.w3.org/1999/xlink" x="0px" y="0px" width="100%" viewBox="54.70 247.90 434.90 434.90" enable-background="new 0 0 528 1024" xml:space="preserve">
<path fill="#FFFFFF" opacity="1.000000" stroke="none" 
	d="
M424.335693,565.238281 
	C403.088104,606.334045 369.893036,632.810913 326.791199,647.118530 
	C293.419037,658.196289 259.509979,659.278992 225.433090,650.237793 
	C221.983124,649.322449 219.076004,649.569092 215.861679,651.058655 
	C193.517517,661.412720 169.965820,667.896057 145.858078,672.534485 
	C145.044739,672.690979 144.206650,672.793335 143.381546,672.784546 
	C142.931625,672.779785 142.484756,672.487976 142.009750,672.315857 
	C141.558594,670.006775 143.458969,669.038696 144.540115,667.715149 
	C156.719406,652.805420 167.248367,636.874390 174.916092,619.143433 
	C176.011124,616.611267 176.737793,614.382874 174.695877,611.762573 
	C152.702591,583.539673 161.818344,546.786011 194.595657,527.627686 
	C211.612305,517.681458 230.377319,513.562073 249.785904,511.645233 
	C287.595215,507.911041 324.054260,514.816101 360.038086,525.460144 
	C363.159332,526.383423 365.318909,525.845337 367.689484,523.708069 
	C379.258453,513.277588 383.467529,499.954346 382.230438,484.967316 
	C381.652985,477.971527 382.757690,472.800842 388.231140,467.841858 
	C398.469452,458.565796 407.959015,448.464539 417.797302,438.744232 
	C419.059845,437.496765 420.071350,435.805511 422.110687,435.605896 
	C439.034027,460.894684 448.733246,518.016174 424.335693,565.238281 
M317.215912,576.596008 
	C323.748169,574.103821 326.045349,568.146912 321.985168,564.040894 
	C319.464386,561.491638 316.445923,560.383728 312.968964,562.007751 
	C309.636292,563.564392 307.683441,566.163391 308.445129,569.943970 
	C309.296143,574.167969 312.007233,576.532776 317.215912,576.596008 
M219.826126,575.776978 
	C225.132339,577.263184 229.763397,574.923706 230.652420,570.307861 
	C231.445206,566.191711 228.686020,562.040955 224.574432,561.458130 
	C220.938446,560.942749 217.814041,562.292297 216.142334,565.510132 
	C214.043427,569.550354 215.621948,572.892090 219.826126,575.776978 
M276.486267,571.976379 
	C278.450470,568.404053 277.204803,565.547119 274.371490,563.181824 
	C271.654877,560.913879 268.621643,560.593750 265.602264,562.525757 
	C263.086945,564.135193 261.335327,566.372498 261.882355,569.577759 
	C262.455811,572.937683 264.323456,575.528687 267.698029,576.399414 
	C271.349121,577.341553 274.181305,575.789368 276.486267,571.976379 
z"/>
<path fill="#FF6000" opacity="1.000000" stroke="none" 
	d="
M379.095886,457.301819 
	C376.017426,458.931854 375.292053,456.759888 374.435333,454.968262 
	C368.380646,442.306641 359.973450,431.376099 349.409058,422.240265 
	C330.616730,405.989136 308.739166,396.828613 284.014526,393.938538 
	C267.213898,391.974731 250.680313,393.009827 234.484268,397.339844 
	C211.957092,403.362366 192.526581,414.797302 177.019653,432.521149 
	C166.035858,445.075165 158.537003,459.400970 155.187134,475.722900 
	C150.850723,496.851654 153.410126,517.119934 164.066589,536.062378 
	C165.913101,539.344666 165.460281,541.786621 163.550125,544.766602 
	C150.227722,565.551086 149.570419,586.878479 161.230560,608.595154 
	C163.259140,612.373291 162.636703,617.147583 159.602432,619.797546 
	C157.342056,621.771729 155.848572,619.799744 154.441452,618.636902 
	C145.177734,610.981873 136.493683,602.726562 128.927475,593.351685 
	C108.248077,567.729065 96.965141,538.481384 96.267418,505.556244 
	C95.584259,473.318634 104.388191,443.748962 123.113953,417.259186 
	C142.642014,389.634430 168.561661,370.113403 199.751587,357.762512 
	C224.982056,347.771576 251.548828,343.460876 278.581573,345.266205 
	C317.928406,347.893982 353.679199,360.833618 384.291321,386.359314 
	C394.817719,395.136688 404.137848,405.081696 412.007202,416.364471 
	C414.366333,419.746918 414.580322,422.275604 411.318451,425.421448 
	C400.530029,435.826233 390.019501,446.519165 379.095886,457.301819 
z"/>
<path fill="#FFFFFF" opacity="1.000000" stroke="none" 
	d="
M214.723877,477.508362 
	C207.109085,471.601746 204.445190,463.980255 206.858414,455.747803 
	C208.812424,449.081940 215.956833,443.565918 223.687225,442.754669 
	C230.790283,442.009216 238.199921,446.106689 241.886154,452.818481 
	C245.807022,459.957458 244.488907,468.808075 238.590561,474.947571 
	C232.810532,480.963898 223.997238,481.994171 214.723877,477.508362 
z"/>
<path fill="#FFFFFF" opacity="1.000000" stroke="none" 
	d="
M321.353699,477.613342 
	C311.072754,482.750793 300.558502,480.170135 295.219849,471.484070 
	C290.069122,463.103790 292.150574,452.266846 300.008789,446.550690 
	C308.310455,440.511963 320.457672,442.053864 326.438416,449.905457 
	C333.179688,458.755554 331.175201,470.322083 321.353699,477.613342 
z"/>
<path fill="#FF6000" opacity="1.000000" stroke="none" 
	d="
M306.603851,276.663422 
	C308.354736,272.662750 309.933289,269.000275 311.580963,265.369202 
	C313.126740,261.962616 314.953705,257.908905 319.452881,259.760284 
	C324.338684,261.770752 322.533386,266.184235 321.017548,269.674561 
	C314.927155,283.698059 308.619446,297.626953 302.460846,311.621124 
	C298.381653,320.890381 294.421234,330.211884 290.403687,339.508301 
	C289.468933,341.671295 288.583832,343.916168 285.675079,343.969177 
	C283.359009,344.011414 280.749878,344.457153 279.040070,342.639343 
	C277.099426,340.576111 279.216431,338.547058 280.019775,336.718719 
	C288.775574,316.792023 297.632385,296.909729 306.603851,276.663422 
z"/>
<path fill="#FF6000" opacity="1.000000" stroke="none" 
	d="
M245.067871,308.017731 
	C249.417755,317.969147 253.639099,327.562408 257.762665,337.197510 
	C258.666107,339.308533 260.925415,342.051636 257.045898,343.339233 
	C253.923492,344.375549 250.292984,345.085846 248.402069,341.021332 
	C245.033447,333.780457 241.749649,326.498932 238.519379,319.195068 
	C231.048004,302.301727 223.651993,285.375031 216.170074,268.486359 
	C214.785919,265.362000 213.961090,262.408203 217.300110,260.043823 
	C220.267197,257.942810 223.244431,259.405060 225.292587,263.956207 
	C231.847260,278.521118 238.369461,293.100677 245.067871,308.017731 
z"/>
</svg>